/* XPM */
static char *_87508c169704721ede5c083a689d44bq3qMRAvxS5XbyzGH[] = {
/* columns rows colors chars-per-pixel */
"30 30 194 2 ",
"   c #6F532F",
".  c #9E7741",
"X  c #A87E43",
"o  c #A67D43",
"O  c #AB8044",
"+  c #A77E43",
"@  c #CE9C55",
"#  c #CF9D54",
"$  c #D6A357",
"%  c #EAB25E",
"&  c #E9B15D",
"*  c #D6A356",
"=  c #CC9B53",
"-  c #CD9B55",
";  c #A67D42",
":  c #CB9B53",
">  c #C19250",
",  c #DAA658",
"<  c #E3AD5B",
"1  c #E3AC5B",
"2  c #A07941",
"3  c #D4A156",
"4  c #99733D",
"5  c #906C3A",
"6  c #95703C",
"7  c #936F3B",
"8  c #9F7840",
"9  c #A57C42",
"0  c #E8B05D",
"q  c #BF914C",
"w  c #C2934E",
"e  c #9D7742",
"r  c #9D7741",
"t  c #AD8345",
"y  c #AC8345",
"u  c #A77E42",
"i  c #E7B05C",
"p  c #E2AC5B",
"a  c #A17940",
"s  c #CE9C52",
"d  c #DBA758",
"f  c #D3A155",
"g  c #A98249",
"h  c #8C6C3C",
"j  c #906E3C",
"k  c #8B6B3A",
"l  c #936F3C",
"z  c #916D3C",
"x  c #9D7945",
"c  c #D3A055",
"v  c #DBA657",
"b  c #D2A055",
"n  c #9F7943",
"m  c #A17A42",
"M  c #B08647",
"N  c #AA8145",
"B  c #9A743E",
"V  c #9D7640",
"C  c #9E7A47",
"Z  c #A47F4A",
"A  c #AB8247",
"S  c #B18748",
"D  c #C1934D",
"F  c #C2934D",
"G  c #BB8E4A",
"H  c #97723D",
"J  c #98743F",
"K  c #83663D",
"L  c #957343",
"P  c #DBA658",
"I  c #9E7941",
"U  c #99753F",
"Y  c #96713D",
"T  c #967442",
"R  c #A37D47",
"E  c #997541",
"W  c #8F6D3C",
"Q  c #9F7941",
"!  c #C0924D",
"~  c #A47E48",
"^  c #A47D47",
"/  c #AC8347",
"(  c #B28748",
")  c #AF8547",
"_  c #947242",
"`  c #997643",
"'  c #AC8246",
"]  c #8B6A3A",
"[  c #8F6E3C",
"{  c #8E6D3C",
"}  c #86673B",
"|  c #A27C46",
" . c #9C7742",
".. c #816338",
"X. c #9E773F",
"o. c #B98D4A",
"O. c #C0924C",
"+. c #C0914C",
"@. c #BE914C",
"#. c #A37E47",
"$. c #B18647",
"%. c #9D763F",
"&. c #B68A48",
"*. c #BC8F4B",
"=. c #BC8E4B",
"-. c #BB8E4B",
";. c #A07B46",
":. c #AA8247",
">. c #BD8F4B",
",. c #926E3B",
"<. c #866739",
"1. c #8A6A3B",
"2. c #8A6A3A",
"3. c #89693B",
"4. c #7A5E37",
"5. c #9D7844",
"6. c #A47D45",
"7. c #826438",
"8. c #8B6A3B",
"9. c #B28747",
"0. c #B98C4A",
"q. c #B88C4A",
"w. c #D29F54",
"e. c #A57D45",
"r. c #BA8D4A",
"t. c #C1924D",
"y. c #BF914D",
"u. c #A57F48",
"i. c #A47E47",
"p. c #946F3C",
"a. c #93713D",
"s. c #92703E",
"d. c #7B6039",
"f. c #977441",
"g. c #AA8146",
"h. c #926F3D",
"j. c #99733E",
"k. c #A57D43",
"l. c #AA8245",
"z. c #AB8245",
"x. c #9E7945",
"c. c #9B7640",
"v. c #BC8E4A",
"b. c #98723D",
"n. c #A47D43",
"m. c #A37D43",
"M. c #896A3E",
"N. c #967341",
"B. c #94713D",
"V. c #98753F",
"C. c #91703F",
"Z. c #846538",
"A. c #95713C",
"S. c #9F7740",
"D. c #BF924D",
"F. c #A67E44",
"G. c #9C753F",
"H. c #AF8546",
"J. c #B58A49",
"K. c #B48949",
"L. c #997644",
"P. c #9C7844",
"I. c #CD9C52",
"U. c #A07940",
"Y. c #E4AD5B",
"T. c #8D6A39",
"R. c #755A32",
"E. c #795D33",
"W. c #775C33",
"Q. c #705632",
"!. c #9B7540",
"~. c #CB9A52",
"^. c #A27A41",
"/. c #A17941",
"(. c #D4A256",
"). c #9E7740",
"_. c #946F3B",
"`. c #916D3A",
"'. c #A27A42",
"]. c #C69751",
"[. c #C29351",
"{. c #E4AE5B",
"}. c #876537",
"|. c #B68B4C",
" X c #BF924E",
".X c #CA9A52",
"XX c #DEA959",
"oX c #DDA858",
"OX c #6A4F2D",
"+X c #866537",
"@X c #8B6838",
"#X c #8A6837",
"$X c #8F6B39",
"%X c black",
/* pixels */
"  . X o O O O O O O O O O O O O O O O O O O O O O O o + .   ",
". @ # $ % & & & & & & & & & & & & & & & & & & & & % * = - . ",
"; : > , < 1 < < < < < < < < < < < < < < < < < < < < , > : ; ",
"2 3 , 2 4 4 5 6 6 6 6 6 6 6 6 6 6 6 6 6 6 6 6 6 6 7 8 , 3 2 ",
"9 0 < 8 q w e r t y y y y y y y y y y y y y y y t u 4 < 0 9 ",
"9 i p a s d f g h j j j j j j j j j j j j j j j j k l < i 9 ",
"9 i < z x c v b n m M M M M M M M M M M M M M M M N B 1 i 9 ",
"9 i 1 V C Z f v c A S D F F F F F F F F F F F F F G 8 p i 9 ",
"9 i < H J K L c P b A I I I I I I I I I I I I I I U Y < i 9 ",
"9 i < Y U I T R c P c E W Q I I I I I I I I I I I U Y < i 9 ",
"9 i p 8 G F ! ~ ^ c P f / ( F F F F F F F F F F F G 8 p i 9 ",
"9 i 1 B N M M ) _ ` b P b A ' M M M M M M M M M M N B 1 i 9 ",
"9 i < l ] [ [ [ { } | c P f  ...j [ [ [ [ [ [ [ [ ] l < i 9 ",
"9 i 1 X.o.O.+.+.O.@.#.R c P b A $.O.+.+.+.+.+.+.O.o.X.1 i 9 ",
"9 i 1 %.&.*.*.*.=.*.-.;.;.b P b :.M >.=.*.*.*.*.*.&.%.1 i 9 ",
"9 i < ,.<.1.2.2.2.2.] 3.4.5.c P c 6.7.8.2.2.2.2.1.<.,.< i 9 ",
"9 i 1 %.9.0.q.q.q.q.q.0.o.R R c P w.e.N o.q.q.q.0.9.%.1 i 9 ",
"9 i p X.r.t.t.t.t.t.t.t.t.y.u.i.c P c A $.t.t.t.t.r.X.p i 9 ",
"9 i < p.W a.a.a.a.a.a.a.a.a.s.d.f.c P b g.h.a.a.a.W p.< i 9 ",
"9 i 1 j.k.l.l.l.l.l.l.l.l.l.l.z.x.R c P b  .c.z.l.k.j.1 i 9 ",
"9 i p 8 v.F F F F F F F F F F F ! u.i.f P f / S F v.8 p i 9 ",
"9 i < b.Q n.n.n.n.n.n.n.n.n.n.n.n.m.M.N.c P b A n.Q b.< i 9 ",
"9 i < 6 B.V.V.V.V.V.V.V.V.V.V.V.V.U J C.R c P c E Z.A.< i 9 ",
"9 i p S.G F D D D D D D D D D D D D D D.~ R c , f F.6 < i 9 ",
"9 i 1 G.H.J.J.J.J.J.J.J.J.J.J.J.J.J.J.J.K.L.P.b P I.U.p i 9 ",
"9 0 Y.T.R.E.E.E.E.E.E.E.E.E.E.E.E.E.E.E.E.W.Q.!.s ~.^.1 0 9 ",
"/.(., ).,._._._._._._._._._._._._._._._._._.6 `.a ^.'., (./.",
"G.].[.P {.Y.Y.Y.Y.Y.Y.Y.Y.Y.Y.Y.Y.Y.Y.Y.Y.Y.Y.Y.< < P [.].G.",
"}.|. X.XXXoXoXoXoXoXoXoXoXoXoXoXoXoXoXoXoXoXoXoXoXXX.X X|.}.",
"OX+X@X#X$X$X$X$X$X$X$X$X$X$X$X$X$X$X$X$X$X$X$X$X$X$X#X@X+XOX"
};
