/* XPM */
static char *result[] = {
/* columns rows colors chars-per-pixel */
"23 22 125 2 ",
"   c #170E12",
".  c #2C1011",
"X  c #15132F",
"o  c #310C2B",
"O  c #391835",
"+  c #282627",
"@  c #382836",
"#  c #3A3738",
"$  c #700A0E",
"%  c #460639",
"&  c #4C1234",
"*  c #700C2F",
"=  c #4B3231",
"-  c #6B2D2E",
";  c #211856",
":  c #302E50",
">  c #303070",
",  c #570548",
"<  c #52134A",
"1  c #6C0E54",
"2  c #532D4E",
"3  c #473845",
"4  c #662D59",
"5  c #751169",
"6  c #4F276C",
"7  c #732E6B",
"8  c #3C4F4F",
"9  c #494748",
"0  c #554A51",
"q  c #4F4F6D",
"w  c #6F506B",
"e  c #676767",
"r  c #726D70",
"t  c gray47",
"y  c #8F070D",
"u  c #B90206",
"i  c #AE0412",
"p  c #9A2F1F",
"a  c #90062F",
"s  c #AF092C",
"d  c #CE060E",
"f  c #D00D2B",
"g  c #8E074E",
"h  c #8B0C74",
"j  c #871878",
"k  c #892D79",
"l  c #6A946E",
"z  c #31318E",
"x  c #2B2A9A",
"c  c #5D2C96",
"v  c #3D4399",
"b  c #4E4E90",
"n  c #70718A",
"m  c #4D4DB1",
"M  c #6B68AD",
"N  c #5455CF",
"B  c #6765D9",
"V  c #6B6CEF",
"C  c #951087",
"Z  c #981787",
"A  c #AA1293",
"S  c #A81897",
"D  c #972788",
"F  c #943389",
"G  c #A82898",
"H  c #A93296",
"J  c #B719A6",
"K  c #8F2AAF",
"L  c #B827A7",
"P  c #B231A8",
"I  c #B837A8",
"U  c #C937B8",
"Y  c #A74E98",
"T  c #8F708A",
"R  c #B64EA9",
"E  c #8A61B0",
"W  c #C847B8",
"Q  c #A336CB",
"!  c #D42CC4",
"~  c #D838C7",
"^  c #A064DB",
"/  c #D947C8",
"(  c #D34FCB",
")  c #D957C8",
"_  c #E749D6",
"`  c #E853D4",
"'  c #E957D9",
"]  c #D76EC9",
"[  c #EA67D9",
"{  c #E977D9",
"}  c #F25BE1",
"|  c #CB66E7",
" . c #F465E3",
".. c #F46CE3",
"X. c #F573E5",
"o. c #F679E6",
"O. c #F97CE9",
"+. c #7D84E0",
"@. c #908F8F",
"#. c #989898",
"$. c #B7B8B8",
"%. c #9699DA",
"&. c #8F92F0",
"*. c #ADB2F3",
"=. c #D68BCB",
"-. c #E98CD9",
";. c #E3A8DE",
":. c #F586E5",
">. c #FA84EA",
",. c #FB8CEB",
"<. c #F98DEC",
"1. c #F597E5",
"2. c #FC94EC",
"3. c #FD9CEE",
"4. c #FF94F2",
"5. c #FF9CF2",
"6. c #FFA5EF",
"7. c #F0B3E9",
"8. c #FFA5F1",
"9. c #FFA9F1",
"0. c #FAA8F6",
"q. c #FDB6F1",
"w. c #F7D1F0",
"e. c white",
"r. c None",
/* pixels */
"r.r.r.r.r.r.r.r.r.r.r.r.r.r.r.r.r.r.r.r.r.r.r.",
"r.r.r.r.r.r.r.r.r.r.r.r.r.r.r.r.r.r.r.r.r.r.r.",
"r.r.r.r.r.r.r.r.#.# @ @ 0 r.r.r.r.r.r.r.r.r.r.",
"r.r.r.0 . . O k G U ( ( L D 1 o . + r.r.r.r.r.",
"r.r.0 * s a G ' | =.] =.=.} W g i a & r.r.r.r.",
"r.r.y f h ~ 1.^ Q B 7 c V K :.} A f d 2 r.r.r.",
"r.k d a ~ <.^ m ( >.5.4. .m M <.} 5 d g r.r.r.",
"r.$ p k -.^ m | 5.0.0.0.5.{ b N ;.R - u = r.r.",
"r.$ $ R [ m B 0.w.q.3.8.6.8.| x Q ..2 y = r.r.",
"r.o 1 ] k ; *.w.e.w.6.6.6.7.7.m 6 { j * 3 r.r.",
"r.r 5 :.c z :.5.9.8.6.6.6.0.4.E ; =.L   r r.r.",
"r.t j :.: z O.8.0.6.6.6.6.8.4.K X ] ( @ r.r.r.",
"r.l j :.: c ' 2.8.8.8.8.8.0.] 6 8 n W = r.r.r.",
"r.t h :.: x | X.<.8.9.0.2.>.F : +.; Z @ r.r.r.",
"r.2 S ` : ; > 4 F H Y H G 7 O < ^ 6 J < r.r.r.",
"r.% _ ` O @.X m N K m N N m > 6 &.I _ C # r.r.",
"r.7 <.o.< $.> &.*.V B B N V N ; M ( O.) 9 r.r.",
"r.w 5.6.P @ B %.: o + o X m V > b Q <.=.: r.r.",
"r.7 ,.2.) < B q 0 5 ^ R X T b q v ! O.( = r.r.",
"r.7 !  ._ 5 m N ; z m x > z N > m K / h : r.r.",
"r.r.k 5 , % e > > > > > > > > m m o , O r.r.r.",
"r.r.r.r.r.r.r.#.#.#.#.#.#.#.n > n r.r.r.r.r.r."
};
