/* XPM */
static char *result[] = {
/* columns rows colors chars-per-pixel */
"30 30 145 2 ",
"   c #DFB70B",
".  c #DFBA1B",
"X  c #E5B401",
"o  c #ECB500",
"O  c #E5BC04",
"+  c #ECBE03",
"@  c #EABC0C",
"#  c #F0B700",
"$  c #F3BE00",
"%  c #E2BC1B",
"&  c #D7BD2A",
"*  c #EDC303",
"=  c #EEC805",
"-  c #F2C300",
";  c #F9C601",
":  c #F5CB01",
">  c #F9CC01",
",  c #EFD50C",
"<  c #F7D303",
"1  c #FDD307",
"2  c #F7DB05",
"3  c #FBDC04",
"4  c #FDD508",
"5  c #F2DB0B",
"6  c #FDDD09",
"7  c #E5C414",
"8  c #ECD515",
"9  c #FDE204",
"0  c #FEEC03",
"q  c #FDE40B",
"w  c #FCEE08",
"e  c #FDF309",
"r  c #F5E113",
"t  c #FEE212",
"y  c #FEEC13",
"u  c #FEED1A",
"i  c #FEF413",
"p  c #FEF21B",
"a  c #DDC825",
"s  c #CCC73F",
"d  c #D4C535",
"f  c #D6C935",
"g  c #E8D822",
"h  c #DFE13A",
"j  c #EBE427",
"k  c #E6E32C",
"l  c #FEEB28",
"z  c #FEF424",
"x  c #FDF826",
"c  c #FEF12F",
"v  c #FDF82A",
"b  c #FEEA3B",
"n  c #FDF434",
"m  c #FCF830",
"M  c #BECB64",
"N  c #B8C377",
"B  c #BAC971",
"V  c #B5C77A",
"C  c #B5CA7D",
"Z  c #BACF79",
"A  c #D3D245",
"S  c #D5D44A",
"D  c #C7CD54",
"F  c #CDCE52",
"G  c #C9C959",
"H  c #D0D552",
"J  c #EBE043",
"K  c #FEF645",
"L  c #FEF24B",
"P  c #FDF253",
"I  c #FDFA55",
"U  c #FEF15C",
"Y  c #FDFA5E",
"T  c #C5CE61",
"R  c #C1CF6F",
"E  c #DBE07B",
"W  c #FCFB62",
"Q  c #FDF56C",
"!  c #FDFB73",
"~  c #FDF97A",
"^  c #7BBDBF",
"/  c #4AA7D7",
"(  c #4DA9D7",
")  c #4AA8D8",
"_  c #53ACD5",
"`  c #5AAFD3",
"'  c #5EB1D2",
"]  c #66B5CF",
"[  c #6AB6CE",
"{  c #6EB8CD",
"}  c #7DBEC4",
"|  c #73BBCB",
" . c #7BBEC9",
".. c #63B3D1",
"X. c #7FC0C7",
"o. c #9EC499",
"O. c #ABC68F",
"+. c #B4C480",
"@. c #B8CE82",
"#. c #B0CE8B",
"$. c #B7D182",
"%. c #A5C692",
"&. c #ABCC94",
"*. c #A3CB9D",
"=. c #A9CC9A",
"-. c #95C7AF",
";. c #9BCAAE",
":. c #8CC2B5",
">. c #86C2BD",
",. c #8AC4BB",
"<. c #92C3B2",
"1. c #99C9B1",
"2. c #91C6BB",
"3. c #A3CDA2",
"4. c #A1CBAB",
"5. c #BBDABB",
"6. c #D1E091",
"7. c #FDF782",
"8. c #FDFC8B",
"9. c #FDFC93",
"0. c #FDFB9D",
"q. c #D8E7A3",
"w. c #D8E5A9",
"e. c #C9E0B3",
"r. c #FEFAAD",
"t. c #FDFCB6",
"y. c #FDFCBE",
"u. c #82C1C3",
"i. c #8AC5C2",
"p. c #81C2C8",
"a. c #95C9C3",
"s. c #A1CFC3",
"d. c #A7D1C4",
"f. c #B2D8C6",
"g. c #BAD9C0",
"h. c #D0E5CE",
"j. c #FDFBC3",
"k. c #FEFDCD",
"l. c #EEF5DD",
"z. c #FEFDD3",
"x. c #FEFCDE",
"c. c #F4F8E2",
"v. c #FDFDE4",
"b. c #FEFEEE",
"n. c #FFFFF1",
/* pixels */
") ) ) ) ) ) ) ) ) ) ) ) ) ) ) ) / ) ) ) ) ) ) ) ) ) ) ) ) ) ",
") ) ) ) ) ) ) ) ) ) ) ) ) ) ) ) / / ) ) ) ) ) ) ) ) ) ) ) ) ",
") ) ) ) ) ) ) ) ) ) ) ( ) ) ) ) / / / / ) / ) ) ) ) ) ) ) ) ",
") ) ) ) ) ) ) ( _ .. . .| ..` _ ( _ _ _ _ _ _ ) ) ) ) ) ) ) ",
") ) ) ) ) ) / ( ..O.E w.5.a. .| [ { |  .} | ] _ / ) ) ) ) ) ",
") ) ) ) ) ) ( ` ,.g P r.x.l.h.f.s.d.g.e.q.6.4.| _ / ) ) ) ) ",
") ) ) ) ) ) ( ..%.5 p 7.v.b.b.c.c.c.v.j.0.Q J -...) ) ) ) ) ",
") ) ) ) ) ) _ [ V 2 0 n j.b.n.b.b.b.b.k.9.U l #.] ( ) ) ) ) ",
") ) ) ) ) ) _ { B 9 0 0 Q x.b.v.v.v.z.r.~ b 6 Z { ( ) ) ) ) ",
") ) ) ) ) ) '  .G 3 0 0 u ~ y.y.t.0.8.! L t 3 $.| ) ) ) ) ) ",
") ) ) ) ) ( ' p.H 9 0 0 w x ! 9.8.! Y K l 6 2 &.{ ( ) ) ) ) ",
") ) ) ) ) _ { ;.k w 0 0 0 e v I W I K n u 6 5 3.{ ( ) ) ) ) ",
") ) ) ) _ [ 3.h e e i i e e e p c m z u y 3 , =.| _ ) ) ) ) ",
") ) ) ( ..*.j e e i x v v p i i p i u y y q 2 A 2.' ( ) ) ) ",
") ) ) ' >.h e e e e z x x p i p p i i p p y 9 2 #.{ ( ( ) ) ",
") ) ) { =.r 0 e e e e u w i p p u y y u p y q 9 S X._ ) ) ) ",
") ) ) | R 2 3 9 3 6 4 3 6 t u z p q 3 3 q q 9 9 8 :.' / ) ) ",
") ) )  .@.: - - $ $ ; > 1 t u z u 3 > ; ; > > = * %.' / ) ) ",
") ) ) [ 2.F * o o # $ ; 1 t u p y q : - - + o X   o.' ) ) ) ",
") ) ) ` | ,.C d @ # # $ 4 t u p y 3 - + # X X O s ^ _ ) ) ) ",
") ) ) ( ' ] | u.3.G % $ 1 t y q q < - = 7 f M %.} ' ) ) ) ) ",
") ) ) ) ) ( _ ' .. .O.@ ; 6 q q 2 - = T 1.} [ ' ( ) ) ) ) ) ",
") ) ) ) ) ) ) ) ( '  .T - 4 6 3 > = D u.] ` ( ) ) / / / ) ) ",
") ) ) ) ) ) ) ) / _ [ <.. ; > : * a :..._ ( ) ) ) / / ) ) ) ",
") ) ) ) ) ) ) ) ) ) `  .+.@ $ + 7 %.[ _ ) ) ) ) ) ) ) ) ) ) ",
") ) ) ) ) ) ) ) ) ) ( ` p.N & d %.| _ ( ) ) ) ) ) ) ) ) ) ) ",
") ) ) ) ) ) ) ) ) ) ( _ ..p.,.i.| ` ( ( ) ) ) ) ) ) ) ) ) ) ",
") ) ) ) ) ) ) ) ) ) ) ) ) ) ) ) ) ) ) ) ) ) ) ) ) ) ) ) ) ) ",
") ) ) ) ) ) ) ) ) ) ) ) ) ) ) ) ) ) ) ) ) ) ) ) ) ) ) ) ) ) ",
") ) ) ) ) ) ) ) ) ) ) ) ) ) ) ) ) ) ) ) ) ) ) ) ) ) ) ) ) ) "
};
