/* XPM */
static char *result[] = {
/* columns rows colors chars-per-pixel */
"22 22 114 2 ",
"   c #2C1011",
".  c #15132F",
"X  c #310C2B",
"o  c #391835",
"O  c #282627",
"+  c #382836",
"@  c #50090D",
"#  c #700A0E",
"$  c #460639",
"%  c #4C1234",
"&  c #700C2F",
"*  c #6D502E",
"=  c #211856",
"-  c #302E50",
";  c #303070",
":  c #570548",
">  c #52134A",
",  c #670757",
"<  c #6C0E54",
"1  c #532D4E",
"2  c #473845",
"3  c #662D59",
"4  c #751169",
"5  c #4F276C",
"6  c #732E6B",
"7  c #494748",
"8  c #554A51",
"9  c #585758",
"0  c #6F506B",
"q  c #676767",
"w  c #726D70",
"e  c gray47",
"r  c #8F070D",
"t  c #B90206",
"y  c #90062F",
"u  c #AF092C",
"i  c #CE060E",
"p  c #EA0B16",
"a  c #F90D1B",
"s  c #D00D2B",
"d  c #FD1224",
"f  c #8E074E",
"g  c #8B0C74",
"h  c #871878",
"j  c #DA1D5A",
"k  c #F82B4F",
"l  c #F6346E",
"z  c #864E7A",
"x  c #877575",
"c  c #31318E",
"v  c #2B2A9A",
"b  c #5D2C96",
"n  c #3D4399",
"m  c #4E4E90",
"M  c #70718A",
"N  c #4D4DB1",
"B  c #6B68AD",
"V  c #5455CF",
"C  c #6765D9",
"Z  c #6B6CEF",
"A  c #951087",
"S  c #981787",
"D  c #A81897",
"F  c #972788",
"G  c #943389",
"H  c #A82898",
"J  c #A93296",
"K  c #B719A6",
"L  c #8F2AAF",
"P  c #B827A7",
"I  c #B231A8",
"U  c #B837A8",
"Y  c #C937B8",
"T  c #944E8B",
"R  c #B64EA9",
"E  c #B470A9",
"W  c #F74B8D",
"Q  c #C952B7",
"!  c #ED5FA6",
"~  c #D623C7",
"^  c #D838C7",
"/  c #E33AD2",
"(  c #D34FCB",
")  c #D957C8",
"_  c #E749D6",
"`  c #E957D9",
"'  c #D76EC9",
"]  c #EA67D9",
"[  c #F25BE1",
"{  c #F679E6",
"}  c #F97CE9",
"|  c #7D84E0",
" . c #878887",
".. c #8F92F0",
"X. c #ADB2F3",
"o. c #D68BCB",
"O. c #E3A8DE",
"+. c #FA84EA",
"@. c #FB8CEB",
"#. c #F98DEC",
"$. c #F597E5",
"%. c #FC94EC",
"&. c #FD9CEE",
"*. c #FF94F2",
"=. c #FF9CF2",
"-. c #FFA5EF",
";. c #FBA8ED",
":. c #FFA5F1",
">. c #FFA9F1",
",. c #FAA8F6",
"<. c #FDB6F1",
"1. c #F7D1F0",
"2. c white",
"3. c None",
/* pixels */
"3.3.3.3.3.3.3.3.e 8 7 8 3.3.3.3.3.3.8 7 3.3.",
"3.3.3.3.3.3.3.x 4 R ' R 4 + 3.3.3.7 & r @ 3.",
"3.3.3.3.3.w  .> K ` } } / S % 3.2 t l W r 3.",
"3.3.3.3.3.m < Y @.-.:.,.<.>.` = : s ! W # 3.",
"3.3.3.O C L _ @.&.,.:.<.2.1.;.b . r a p @ 3.",
"3.3.3.. = b G T T R ] #.1.<.=.N v X r u 1 3.",
"3.3.M = m n n v v 5 > 6 Q =.O.N 5 g   & w 3.",
"3.3.= 3.V ; c V Z Z N N = 4 b v L ( $ 2 3.3.",
"3.7 N 3.= , : 4 = - ..X.N . . v ^ #.H 9 3.3.",
"3.7 N = g S 4 K 0 F 5 | X.c = L ` %.R 8 3.3.",
"3.7 N = ~ ( J P o.F D ; ..X.M S %.>.R 9 3.3.",
"3.7 N = [ G : / o D ( = Z | 9 I *.=.R 9 3.3.",
"3.7 N - _ G T *.3 E ' ; Z ; $ ] ,.=.D 8 3.3.",
"3.2 N = A g % z 4 ) ( ; Z m h +.-.} A 9 3.3.",
"3.2 c n 5 V N B ; 4 $ . 5 G ' &.-.( , 8 3.3.",
"3.3.- c V C N N V o , I ' $.%.-.{ P % T 3.3.",
"3.3.3.. . . m n = U $.&.:.@.@.+.( f f r w 3.",
"3.3.3.. V ..X.n S @.:.:.:.] _ ^ 4 t d p # 3.",
"3.3.3.q = m N . F +.:.,.*.F : : # i d k # 3.",
"3.3.3.3.e M e e 3 ^ +.+.U 3 e e # y j k # 3.",
"3.3.3.3.3.3.3.3.3.> 1 1 3 3.3.3.3.3.3.@ * 3.",
"3.3.3.3.3.3.3.3.3.3.3.3.3.3.3.3.3.3.3.3.3.3."
};
