/* XPM */
static char *result[] = {
/* columns rows colors chars-per-pixel */
"24 22 111 2 ",
"   c #040001",
".  c #1C1A1B",
"X  c #1E1B1C",
"o  c #050327",
"O  c #290022",
"+  c #33092E",
"@  c #311E30",
"#  c #321E30",
"$  c #302D2D",
"%  c #3A2838",
"&  c #4E0001",
"*  c #720001",
"=  c #4A032D",
"-  c #720027",
";  c #492A29",
":  c #140954",
">  c #28254E",
",  c #282872",
"<  c #500347",
"1  c #550044",
"2  c #670055",
"3  c #6C0152",
"4  c #51244C",
"5  c #423241",
"6  c #662458",
"7  c #4D1C6C",
"8  c #770269",
"9  c #74256B",
"0  c #75256B",
"q  c #364D4D",
"w  c #4C454A",
"e  c #544D51",
"r  c #565556",
"t  c #575557",
"y  c #56655D",
"u  c #4C4C6C",
"i  c #746D73",
"p  c gray47",
"a  c gray48",
"s  c #910001",
"d  c #B10023",
"f  c #D00001",
"g  c #F9010C",
"h  c #D20122",
"j  c #F20322",
"k  c #90004C",
"l  c #8D0076",
"z  c #89097A",
"x  c #F62D6F",
"c  c #292990",
"v  c #22209C",
"b  c #5D2398",
"n  c #4C4C92",
"m  c #4B4BB4",
"M  c #6B68B0",
"N  c #5253D1",
"B  c #6765DB",
"V  c #6B6CF0",
"C  c #970189",
"Z  c #991C8A",
"A  c #AB0697",
"S  c #AA1E9A",
"D  c #962C8B",
"F  c #AB2B98",
"G  c #B90AA8",
"H  c #BA1CA9",
"J  c #B529AA",
"K  c #BA31AA",
"L  c #CA07B8",
"P  c #CA1EBA",
"I  c #CB31BB",
"U  c #964C8D",
"Y  c #A94C9A",
"T  c #B84CAB",
"R  c #CA43BB",
"E  c #D818C9",
"W  c #DA32C9",
"Q  c #E534D4",
"!  c #D848CC",
"~  c #DB55CA",
"^  c #E945D8",
"/  c #E159D4",
"(  c #EB52D8",
")  c #EE73DA",
"_  c #F25BE3",
"`  c #F467E5",
"'  c #F375E7",
"]  c #F87DEA",
"[  c #7D8C8F",
"{  c #7F86E2",
"}  c gray56",
"|  c #929191",
" . c #929292",
".. c #9A9A9A",
"X. c #9B9B9B",
"o. c #9194F0",
"O. c #9194F1",
"+. c #AFB5F3",
"@. c #D88DCD",
"#. c #FB8EED",
"$. c #F599E7",
"%. c #FA91EE",
"&. c #FF96F2",
"*. c #FE9FF1",
"=. c #FFA7F0",
"-. c #FDABF0",
";. c #FAAAF6",
":. c #FDB9F1",
">. c #F7D3F0",
",. c #DEE0E0",
"<. c None",
/* pixels */
"<.<.<.<.<.<.<.<.<.<.<.<.<.<.<.<.<.<.<.<.<.<.<.<.",
"<.<.<.<.<.<.<.<.<.<.<.<.<.<.<.<.<.<.<.<.<.<.<.<.",
"<.<.<.<.<.<.<.<.p X + + + # i ,.<.e > <.<.<.<.<.",
"<.<.<.<.<.<.<.o 2 G ^ ( ^ Q G <   m o.$ <.<.<.<.",
"<.<.<.<.<.<.o b G ^ %.' Y Z Z 8   , V $ <.<.<.<.",
"<.<.<.<.} O 7 v v L I 8 , : , , , , , # <.<.<.<.",
"<.<.<.r   1 G b v b + c V O.O.V V V c X <.<.<.<.",
"<.<.0 S S l A G c : c V +.B q , : > N m w } <.<.",
"<.2 ! &.&._ W E 1 [ { +.% < < A < 1 : N O D } <.",
"<.8 ] >.:.&.` _ 0 | O.{ O T @.E ~ K 8 N > / 2 <.",
" .6 ] ;.-.*.] %.] 2 m B : S 6 ^ < J z m ; <.8 <.",
"<.6 K ] $.%.=.=.%.6 m N O Z 6 &.4 T C m 5 <.2 <.",
"<.<.0 8 ( ] =.=.*.4 m N   < X U X Z < m < / 9 <.",
"<.<.y O L ' =.=.;.T , N c o m n n < c N O F <.<.",
"<...* 3 L ) #.=.;.&.0 : B M V n m N N : @ <.<.<.",
"<.< h f l P ` #.-.-.) 3 + o o   o o o . <.<.<.<.",
"..& j g k G ^ ' #.*.=.] ! l , O.O.V m $ <.<.<.<.",
"<.- x d s 2 G ^ ` ] #.*.#.W D B m m , t <.<.<.<.",
"<.<.- =   e 1 l H R ( _ ` _ P 1   5 u <.<.<.<.<.",
"<.<.<.} <.<.a w O O 1 8 8 2 2 1 r <.<.<.<.<.<.<.",
"<.<.<.<.<.<.<.<.<.X...X.X...X.<.<.<.<.<.<.<.<.<.",
"<.<.<.<.<.<.<.<.<.<.<.<.<.<.<.<.<.<.<.<.<.<.<.<."
};
