/* XPM */
static char *result[] = {
/* columns rows colors chars-per-pixel */
"21 22 19 1 ",
"  c black",
". c #601010",
"X c #705010",
"o c #B00028",
"O c #B02038",
"+ c #A87818",
"@ c #D00050",
"# c #D84870",
"$ c #F8D000",
"% c #301888",
"& c #3848C8",
"* c #F81880",
"= c #F070A0",
"- c #5880F8",
"; c #90B0F8",
": c #F890C0",
"> c #F8A0D8",
", c #F8F8F8",
"< c None",
/* pixels */
"<<<<<<<<<<<<<<<<<<<<<",
"<<<<   <<<<<<<<<<<<<<",
"<<<< $ <<<,,,,<<<<<<<",
"<<<< $ ,      ,<<<<<<",
"<<<< +  X----   <<<<<",
"<<<< X&--;;,,;-  ,<<<",
"<<<< &%    %---&  <<<",
"<<<< % =O>#O----  ,<<",
"<<< & >.,>.,>---%  ,<",
"<<< & > #> O>&--%=  ,",
"<<  & > => #>&&& ># ,",
"< . % * >> =*&%% >>. ",
"< > % >&;>>>>&%% >>> ",
"< = %-&%%&;;&%%% :>= ",
"< .# %   %%%%%% ===O ",
"<< .O +$$      =#.  ,",
"<<< o X++ :====#@@ ,<",
"<< ***   ====#***,* <",
"< .***@o#===#@*****o ",
"< .o@@@ooo  o@@@@@@o ",
"<<        <<        ,",
"<<<<<<<<<,<<,,,<<<<<<"
};
