/* XPM */
static char *result[] = {
/* columns rows colors chars-per-pixel */
"20 25 114 2 ",
"   c #2C1011",
".  c #15132F",
"X  c #310C2B",
"o  c #391835",
"O  c #282627",
"+  c #362A27",
"@  c #382836",
"#  c #3A3738",
"$  c #700A0E",
"%  c #460639",
"&  c #4C1234",
"*  c #6B2D2E",
"=  c #211856",
"-  c #302E50",
";  c #303070",
":  c #570548",
">  c #52134A",
",  c #670757",
"<  c #6C0E54",
"1  c #532D4E",
"2  c #662D59",
"3  c #751169",
"4  c #4F276C",
"5  c #732E6B",
"6  c #494748",
"7  c #554A51",
"8  c #585758",
"9  c #4F4F6D",
"0  c #6F506B",
"q  c #676767",
"w  c gray47",
"e  c #8F070D",
"r  c #AE0412",
"t  c #AF092C",
"y  c #CE060E",
"u  c #EA0B16",
"i  c #D00D2B",
"p  c #8E074E",
"a  c #8B0C74",
"s  c #871878",
"d  c #892D79",
"f  c #864E7A",
"g  c #6A946E",
"h  c #A3906C",
"j  c #31318E",
"k  c #2B2A9A",
"l  c #5D2C96",
"z  c #3D4399",
"x  c #4E4E90",
"c  c #70718A",
"v  c #4D4DB1",
"b  c #6B68AD",
"n  c #5455CF",
"m  c #6765D9",
"M  c #6B6CEF",
"N  c #951087",
"B  c #981787",
"V  c #A81897",
"C  c #972788",
"Z  c #943389",
"A  c #A82898",
"S  c #B719A6",
"D  c #8F2AAF",
"F  c #B827A7",
"G  c #B837A8",
"H  c #C817B5",
"J  c #C828B7",
"K  c #C937B8",
"L  c #944E8B",
"P  c #A74E98",
"I  c #8F708A",
"U  c #A76C99",
"Y  c #8A61B0",
"T  c #B470A9",
"R  c #C847B8",
"E  c #A336CB",
"W  c #D42CC4",
"Q  c #E33AD2",
"!  c #A064DB",
"~  c #D34FCB",
"^  c #E749D6",
"/  c #E957D9",
"(  c #D76EC9",
")  c #EA67D9",
"_  c #F25BE1",
"`  c #F465E3",
"'  c #F46CE3",
"]  c #EF74E4",
"[  c #F573E5",
"{  c #F97CE9",
"}  c #7B8A8D",
"|  c #7D84E0",
" . c #908F8F",
".. c #989898",
"X. c #A19E9C",
"o. c #A7A8A7",
"O. c #9699DA",
"+. c #B4B7CE",
"@. c #8F92F0",
"#. c #ADB2F3",
"$. c #D68BCB",
"%. c #F586E5",
"&. c #FA84EA",
"*. c #FB8CEB",
"=. c #FC94EC",
"-. c #FF94F2",
";. c #FF9CF2",
":. c #FFA5EF",
">. c #FBA8ED",
",. c #FFA5F1",
"<. c #FFA9F1",
"1. c #FAA8F6",
"2. c #E3E4E4",
"3. c None",
/* pixels */
"3.3.3.3.3.3.3.3.3.3.3.3.3.3.# g 3.3.3.3.",
"3.3.3.3.3.3.3.3.3.3.3.3.2.- @.x ..3.3.3.",
"3.3.3.3.3.3.o.X.o.X.X.o. .- #.x ..3.3.3.",
"3.3.3.h } c ; 9 ; ; ; ; = x } x 7 3.3.3.",
"3.3.2 d O } @.M n n k v M M z - > 0 3.3.",
"3.4 K Z v #.z = . . . . ; v n ; Z V 7 3.",
"3.: ) 2 | k = 3 > E F o 3 = M z U Q X 3.",
"3.3 { 9 b - B ( $.[ _ $.~ > j j Y _ o 3.",
"3.< ` 4 n O ' Z 2 *.` o ~ T = z L / o 3.",
"3.2 ` 4 v = { P > T P . ] T - j U _ o 3.",
"3.3 &.9 v j Z x 9 x z ; Z l b j U ` o 3.",
"3.3 *.5 z m z v M x m M z b m = U ` o 3.",
"3.> ] ~ - k k v k = - ; ; z m 9 I ^ X 3.",
"3.: ^ *.~ S , . = x O.O.! O.| l R W X 3.",
"3.o G -.;.' ^ ~ D l @.O.@.@.v S _ Z @ 3.",
"3. .C ` 1.>.:.;.-.R a B a s A ` _ 1 3.3.",
"3.3.d ^ *.:.:.:.:.=.' ) ) ` ' ` J 0 3.3.",
"3.3.f V _ *.:.:.:.:.:.<.<.,.&.^ 3 3.3.3.",
"3.3.3.2 S _ %.=.:.:.:.,.&.{ ^ N 0 3.3.3.",
"3.3.3.6 , N W _ %.&.{ { ^ J N X ..3.3.3.",
"3.3.3.8 : , a H H H J H H p , X ..3.3.3.",
"3.3.3.3.+ r y t <   O < y y $ q 3.3.3.3.",
"3.3.3.3.8 e u u e o & r u i $ ..3.3.3.3.",
"3.3.3.3.3.8 % $ * +. .$ $ %  .3.3.3.3.3.",
"3.3.3.3.3.3.w w 3.3.3.3.w 3.3.3.3.3.3.3."
};
