/* XPM */
static char *result[] = {
/* columns rows colors chars-per-pixel */
"30 30 65 1 ",
"  c #404D4F",
". c #414F50",
"X c #455355",
"o c #475659",
"O c #48575A",
"+ c #47585A",
"@ c #4B595C",
"# c #515D5D",
"$ c #4D5E63",
"% c #505E60",
"& c #4E6064",
"* c #4F6369",
"= c #546264",
"- c #596566",
"; c #52656B",
": c #53686E",
"> c #596A6E",
", c #566B72",
"< c #596E75",
"1 c #5E7177",
"2 c #5C737B",
"3 c #5E787F",
"4 c #62767C",
"5 c #64787E",
"6 c #5D7981",
"7 c #627D85",
"8 c #697E85",
"9 c #647F88",
"0 c #648087",
"q c #66848C",
"w c #69868E",
"e c #69888F",
"r c #72878F",
"t c #6A8790",
"y c #6E8E96",
"u c #6F8F98",
"i c #728D95",
"p c #718E99",
"a c #6F9098",
"s c #749097",
"d c #729199",
"f c #79969E",
"g c #7797A1",
"h c #7A97A1",
"j c #7798A4",
"k c #7B9AA4",
"l c #7C9DA9",
"z c #828586",
"x c #828789",
"c c #868B8C",
"v c #8A8C8C",
"b c #8A8F91",
"n c #8D9294",
"m c #929597",
"M c #929698",
"N c #93989A",
"B c #849DA6",
"V c #819EA8",
"C c #83A1AD",
"Z c #8AA4AE",
"A c #81A4B1",
"S c #8CA6B0",
"D c #8DA8B3",
"F c #92ABB5",
"G c #93AEBA",
/* pixels */
"vzvbbnnMnnnMnbxbMMMMMMnMMNNnvn",
"ziZZBlBBBVBBAt,fGFSDDSDDDDGs-v",
"bVgyqwwwtwwwu7@kAkddauauddkr#v",
"nBtqqqqqqtqwq;Ojdaadayyyudi<#v",
"bBtqqqqwqwqqq*@jppyydddpaap<@v",
"nf:2qqqqqqq2;$@u27yyyyypu0<;#v",
"v7o$;$*****$oo.:$;,,,,,,,;$$@v",
"z%@@@$X.oo@o$@@@@@@+X X@@@$O#v",
"bfClBCw+qlljjjjjjjjl7XwACBBf-v",
"NFfhfCi&llkadadpuudkw@BDCfhf>v",
"NFfdffq%jdduydyyuyyp,OBhffds-v",
"mFffff0$jdauyaadyyyy<@khfffi-v",
"mFffde0&p29uyaaypp92=@f8wffi-v",
"bswq073o:$;,,,,<,,:$$X4,<444%v",
"z&#%$$$O@@@@+X X@oo@OXO@@+OX@v",
"bslkgggggjgjk0o6dppyyppyuid3#v",
"MDCkaadaddyakw$pjptwtqeeqwaq$c",
"MDddaydadyyya,oytqqqqqqqqqq,@v",
"NSddaaaauadpa,+ywqqqqqqqqqw:@v",
"MB20ayyauyy91*$t,6wqqqqqq6,$#v",
"vw=;,<<<<,,:$$X;$$*;::*:;&++@v",
"8$O+++o X+@+++XoO++OX .oO++o#v",
"vijjjk6+wClBBklBkkBBt+6lkjjd-v",
"vSdadkw&CDBfhhhfhjjAp&llkddt-v",
"bSituu,$Bffidfffffdf4@jdiyde-v",
"nSdipp:@ljffdffdffff4@fduydt-v",
"nSda92%#n8ifffffffi81@p47aay-v",
"ct1<:%$X6<<45555444>>X,#;<1:#v",
"x-###@#@@%###########@@#@@#@-v",
"mnvvvvvvvvvvvvvvvvvvvvvvvvvvvv"
};
